<?xml version="1.0" encoding="utf-8"?>
<!-- Generator: Adobe Illustrator 23.0.5, SVG Export Plug-In . SVG Version: 6.00 Build 0)  -->
<svg version="1.1" id="Capa_1" xmlns="http://www.w3.org/2000/svg" xmlns:xlink="http://www.w3.org/1999/xlink" x="0px" y="0px"
	 viewBox="0 0 25 25" style="enable-background:new 0 0 25 25;" xml:space="preserve">
<style type="text/css">
	.st0{fill:#FFFFFF;}
	.st1{fill:url(#SVGID_1_);}
	.st2{fill:url(#SVGID_2_);}
</style>
<g>
	<path class="st0" d="M1.5,19.4c0,0-3.5-8.9,0.5-14.1S15,6.6,15,6.6S2.8,2,1.5,19.4z"/>
	<path class="st0" d="M5.5,1.2c0,0,9.2-2.6,14,1.8s-2.4,12.8-2.4,12.8S22.7,4.1,5.5,1.2z"/>
	<path class="st0" d="M22.5,4.6c0,0,4.5,8.5,1.1,14s-13,0.2-13,0.2S23.2,22,22.5,4.6z"/>
	<path class="st0" d="M19.5,23c0,0-8.8,3.7-14.1-0.3s1-13,1-13S2.1,22.1,19.5,23z"/>
</g>
</svg>
