<?xml version="1.0" encoding="utf-8"?>
<!-- Generator: Adobe Illustrator 23.0.5, SVG Export Plug-In . SVG Version: 6.00 Build 0)  -->
<svg version="1.1" id="OBJECTS" xmlns="http://www.w3.org/2000/svg" xmlns:xlink="http://www.w3.org/1999/xlink" x="0px" y="0px"
	 viewBox="0 0 259.4 162.05" style="enable-background:new 0 0 259.4 162.05;" xml:space="preserve">
<style type="text/css">
	.st0{clip-path:url(#SVGID_2_);fill:url(#SVGID_3_);}
	.st1{clip-path:url(#SVGID_2_);fill:none;}
	.st2{clip-path:url(#SVGID_2_);fill:url(#SVGID_4_);}
	.st3{clip-path:url(#SVGID_2_);}
	.st4{opacity:0.55;fill:none;stroke:url(#SVGID_5_);stroke-width:0.8567;stroke-miterlimit:10;}
	.st5{opacity:0.55;fill:none;stroke:url(#SVGID_6_);stroke-width:0.8567;stroke-miterlimit:10;}
	.st6{opacity:0.55;fill:none;stroke:url(#SVGID_7_);stroke-width:0.8567;stroke-miterlimit:10;}
	.st7{opacity:0.55;fill:none;stroke:url(#SVGID_8_);stroke-width:0.8567;stroke-miterlimit:10;}
	.st8{opacity:0.64;}
	.st9{fill:url(#SVGID_9_);}
	.st10{fill:url(#SVGID_10_);}
	.st11{fill:none;stroke:#D8A960;stroke-width:0.6448;stroke-miterlimit:10;}
	.st12{fill:#CA4E58;}
	.st13{fill:#C73D3D;}
	.st14{fill:#D37A80;}
	.st15{fill:#E3B1B9;}
	.st16{clip-path:url(#SVGID_12_);fill:url(#SVGID_13_);}
	.st17{clip-path:url(#SVGID_12_);fill:none;}
	.st18{clip-path:url(#SVGID_12_);fill:url(#SVGID_14_);}
	.st19{clip-path:url(#SVGID_12_);}
	.st20{opacity:0.55;fill:none;stroke:url(#SVGID_15_);stroke-width:0.8567;stroke-miterlimit:10;}
	.st21{opacity:0.55;fill:none;stroke:url(#SVGID_16_);stroke-width:0.8567;stroke-miterlimit:10;}
	.st22{opacity:0.55;fill:none;stroke:url(#SVGID_17_);stroke-width:0.8567;stroke-miterlimit:10;}
	.st23{opacity:0.55;fill:none;stroke:url(#SVGID_18_);stroke-width:0.8567;stroke-miterlimit:10;}
	.st24{fill:url(#SVGID_19_);}
	.st25{fill:url(#SVGID_20_);}
	.st26{fill:none;stroke:#D8A960;stroke-width:0.5678;stroke-miterlimit:10;}
	.st27{fill:url(#SVGID_21_);}
	.st28{fill:none;}
	.st29{fill:url(#SVGID_22_);}
	.st30{fill:url(#SVGID_23_);}
	.st31{fill:url(#SVGID_24_);}
	.st32{fill:url(#SVGID_25_);}
	.st33{fill:url(#SVGID_26_);}
	.st34{opacity:0.55;fill:none;stroke:url(#SVGID_27_);stroke-width:0.8567;stroke-miterlimit:10;}
	.st35{opacity:0.55;fill:none;stroke:url(#SVGID_28_);stroke-width:0.8567;stroke-miterlimit:10;}
	.st36{opacity:0.55;fill:none;stroke:url(#SVGID_29_);stroke-width:0.8567;stroke-miterlimit:10;}
	.st37{opacity:0.55;fill:none;stroke:url(#SVGID_30_);stroke-width:0.8567;stroke-miterlimit:10;}
	.st38{fill:url(#SVGID_31_);}
	.st39{fill:url(#SVGID_32_);}
	.st40{fill:url(#SVGID_33_);}
	.st41{fill:url(#SVGID_34_);}
	.st42{fill:url(#SVGID_35_);}
	.st43{clip-path:url(#SVGID_37_);fill:url(#SVGID_38_);}
	.st44{clip-path:url(#SVGID_37_);fill:none;}
	.st45{clip-path:url(#SVGID_37_);fill:url(#SVGID_39_);}
	.st46{clip-path:url(#SVGID_37_);}
	.st47{opacity:0.55;fill:none;stroke:url(#SVGID_40_);stroke-width:0.8567;stroke-miterlimit:10;}
	.st48{opacity:0.55;fill:none;stroke:url(#SVGID_41_);stroke-width:0.8567;stroke-miterlimit:10;}
	.st49{opacity:0.55;fill:none;stroke:url(#SVGID_42_);stroke-width:0.8567;stroke-miterlimit:10;}
	.st50{opacity:0.55;fill:none;stroke:url(#SVGID_43_);stroke-width:0.8567;stroke-miterlimit:10;}
	.st51{fill:url(#SVGID_44_);}
	.st52{fill:url(#SVGID_45_);}
	.st53{clip-path:url(#SVGID_47_);}
	.st54{opacity:0.55;fill:none;stroke:url(#SVGID_48_);stroke-width:0.8567;stroke-miterlimit:10;}
	.st55{opacity:0.55;fill:none;stroke:url(#SVGID_49_);stroke-width:0.8567;stroke-miterlimit:10;}
	.st56{opacity:0.55;fill:none;stroke:url(#SVGID_50_);stroke-width:0.8567;stroke-miterlimit:10;}
	.st57{opacity:0.55;fill:none;stroke:url(#SVGID_51_);stroke-width:0.8567;stroke-miterlimit:10;}
	.st58{opacity:0.55;}
	.st59{clip-path:url(#SVGID_53_);}
	.st60{opacity:0.55;fill:none;stroke:url(#SVGID_54_);stroke-width:0.8567;stroke-miterlimit:10;}
	.st61{opacity:0.55;fill:none;stroke:url(#SVGID_55_);stroke-width:0.8567;stroke-miterlimit:10;}
	.st62{opacity:0.55;fill:none;stroke:url(#SVGID_56_);stroke-width:0.8567;stroke-miterlimit:10;}
	.st63{opacity:0.55;fill:none;stroke:url(#SVGID_57_);stroke-width:0.8567;stroke-miterlimit:10;}
</style>
<g>
	<g>
		<defs>
			<path id="SVGID_11_" d="M247.62,0L11.74,0.04c-6.45,0-11.68,5.23-11.68,11.69l0.02,138.64c0,6.45,5.23,11.68,11.69,11.68
				l235.89-0.04c6.45,0,11.68-5.23,11.68-11.69l-0.02-138.64C259.31,5.23,254.08,0,247.62,0z"/>
		</defs>
		<clipPath id="SVGID_2_">
			<use xlink:href="#SVGID_11_"  style="overflow:visible;"/>
		</clipPath>
		
			<linearGradient id="SVGID_3_" gradientUnits="userSpaceOnUse" x1="-51.6797" y1="106.3861" x2="240.9593" y2="106.3861" gradientTransform="matrix(0.7586 0.6516 -0.6516 0.7586 127.2167 -61.3425)">
			<stop  offset="0" style="stop-color:#00002C"/>
			<stop  offset="1" style="stop-color:#23080C"/>
		</linearGradient>
		<path class="st0" d="M247.62,0L11.74,0.04c-6.45,0-11.68,5.23-11.68,11.69l0.02,138.64c0,6.45,5.23,11.68,11.69,11.68l235.89-0.04
			c6.45,0,11.68-5.23,11.68-11.69l-0.02-138.64C259.31,5.23,254.08,0,247.62,0z"/>
		<path class="st1" d="M247.62,0L11.74,0.04c-6.45,0-11.68,5.23-11.68,11.69l0.02,138.64c0,6.45,5.23,11.68,11.69,11.68l235.89-0.04
			c6.45,0,11.68-5.23,11.68-11.69l-0.02-138.64C259.31,5.23,254.08,0,247.62,0z"/>
		
			<linearGradient id="SVGID_4_" gradientUnits="userSpaceOnUse" x1="1530.2709" y1="-885.5261" x2="1353.2163" y2="-794.1504" gradientTransform="matrix(1 -1.676544e-04 1.676544e-04 1 -1399.9929 967.0684)">
			<stop  offset="0" style="stop-color:#000000;stop-opacity:0"/>
			<stop  offset="1" style="stop-color:#000000"/>
		</linearGradient>
		<path class="st2" d="M248.6,160.75l-235.89,0.04c-6.45,0-11.69-5.23-11.69-11.68L1,10.46C1,8.11,1.7,5.94,2.89,4.11
			c-1.76,2.05-2.83,4.7-2.83,7.61l0.02,138.64c0,6.45,5.23,11.68,11.69,11.68l235.89-0.04c4.11,0,7.72-2.13,9.8-5.34
			C255.31,159.16,252.14,160.75,248.6,160.75z"/>
		<g class="st3">
			
				<linearGradient id="SVGID_5_" gradientUnits="userSpaceOnUse" x1="4776.3169" y1="-661.5014" x2="4807.2974" y2="-473.1105" gradientTransform="matrix(0.5071 -0.8618 0.8618 0.5071 -1720.6097 4558.4907)">
				<stop  offset="0" style="stop-color:#C73D3D"/>
				<stop  offset="1" style="stop-color:#000051;stop-opacity:0"/>
			</linearGradient>
			
				<ellipse transform="matrix(0.7071 -0.7071 0.7071 0.7071 -35.1865 197.3603)" class="st4" cx="220.64" cy="141.15" rx="95.03" ry="95.03"/>
			
				<linearGradient id="SVGID_6_" gradientUnits="userSpaceOnUse" x1="4777.4922" y1="-654.3554" x2="4806.1221" y2="-480.2565" gradientTransform="matrix(0.5071 -0.8618 0.8618 0.5071 -1720.6097 4558.4907)">
				<stop  offset="0" style="stop-color:#C73D3D"/>
				<stop  offset="1" style="stop-color:#000051;stop-opacity:0"/>
			</linearGradient>
			
				<ellipse transform="matrix(0.7071 -0.7071 0.7071 0.7071 -35.1865 197.3603)" class="st5" cx="220.64" cy="141.15" rx="87.79" ry="87.79"/>
			
				<linearGradient id="SVGID_7_" gradientUnits="userSpaceOnUse" x1="2477.0479" y1="-1441.8452" x2="2497.5132" y2="-1317.3961" gradientTransform="matrix(0.9577 -0.2878 0.2878 0.9577 -1830.6656 2220.696)">
				<stop  offset="0" style="stop-color:#C73D3D"/>
				<stop  offset="1" style="stop-color:#000051;stop-opacity:0"/>
			</linearGradient>
			
				<ellipse transform="matrix(0.7071 -0.7071 0.7071 0.7071 -84.6507 162.9533)" class="st6" cx="154.38" cy="183.66" rx="62.63" ry="62.63"/>
			
				<linearGradient id="SVGID_8_" gradientUnits="userSpaceOnUse" x1="-157.7234" y1="3054.0176" x2="-144.1731" y2="3136.4172" gradientTransform="matrix(-0.0595 0.9982 -0.9982 -0.0595 3232.426 504.2805)">
				<stop  offset="0" style="stop-color:#C73D3D"/>
				<stop  offset="1" style="stop-color:#000051;stop-opacity:0"/>
			</linearGradient>
			
				<ellipse transform="matrix(0.4754 -0.8798 0.8798 0.4754 -69.6033 222.3625)" class="st7" cx="151.64" cy="169.54" rx="41.33" ry="41.33"/>
		</g>
	</g>
	<g class="st8">
		
			<linearGradient id="SVGID_9_" gradientUnits="userSpaceOnUse" x1="1489.91" y1="-844.1741" x2="1619.0881" y2="-978.8785" gradientTransform="matrix(1 -1.676544e-04 1.676544e-04 1 -1399.9929 967.0684)">
			<stop  offset="0" style="stop-color:#300075;stop-opacity:0"/>
			<stop  offset="1" style="stop-color:#300075"/>
		</linearGradient>
		<path class="st9" d="M247.62,0L11.74,0.04c-3.27,0-6.22,1.34-8.34,3.51c1.95-1.46,4.36-2.33,6.98-2.33l235.89-0.04
			c6.45,0,11.69,5.23,11.69,11.68l0.02,138.64c0,3.19-1.28,6.07-3.35,8.18c2.85-2.13,4.7-5.52,4.7-9.35l-0.02-138.64
			C259.31,5.23,254.08,0,247.62,0z"/>
	</g>
	<g>
		
			<linearGradient id="SVGID_10_" gradientUnits="userSpaceOnUse" x1="1602.9556" y1="-899.4041" x2="1628.2531" y2="-880.6652" gradientTransform="matrix(1 -1.676544e-04 1.676544e-04 1 -1399.9929 967.0684)">
			<stop  offset="0" style="stop-color:#FFFFC7"/>
			<stop  offset="0.578" style="stop-color:#FFCB68"/>
			<stop  offset="1" style="stop-color:#F5E08F"/>
		</linearGradient>
		<path class="st10" d="M228.09,66.25l-24.6,0c-1.4,0-2.53,1.13-2.53,2.53l0,16.34c0,1.4,1.13,2.53,2.53,2.53l24.6,0
			c1.4,0,2.53-1.13,2.53-2.53l0-16.34C230.63,67.39,229.49,66.25,228.09,66.25z"/>
		<path class="st26" d="M228.09,66.25l-24.6,0c-1.4,0-2.53,1.13-2.53,2.53l0,16.34c0,1.4,1.13,2.53,2.53,2.53l24.6,0
			c1.4,0,2.53-1.13,2.53-2.53l0-16.34C230.63,67.39,229.49,66.25,228.09,66.25z"/>
		<path class="st26" d="M206.27,82.32l-5.31,0l0-10.71l5.31,0c2.01,0,3.64,1.63,3.64,3.64l0,3.42
			C209.91,80.69,208.28,82.32,206.27,82.32z"/>
		<path class="st26" d="M209.91,76.96c-0.2,0.08-8.91,0-8.91,0"/>
		<path class="st26" d="M225.32,82.31l5.31,0l0-10.71l-5.31,0c-2.01,0-3.64,1.63-3.64,3.64l0,3.42
			C221.68,80.68,223.31,82.31,225.32,82.31z"/>
		<path class="st26" d="M221.71,76.96c0.2,0.08,8.91,0,8.91,0"/>
		<polyline class="st26" points="209.14,72.7 211.14,70.7 220.84,70.7 222.64,72.5 		"/>
		<line class="st26" x1="215.89" y1="70.7" x2="215.89" y2="66.26"/>
		<polyline class="st26" points="209.1,81.18 211.14,83.22 220.84,83.22 222.7,81.37 		"/>
		<line class="st26" x1="215.89" y1="83.22" x2="215.89" y2="87.67"/>
	</g>
	<g>
		<g>
			<path class="st12" d="M74.49,38.21c0,0-2.91-7.17,0.29-11.38c3.2-4.21,10.47,0.87,10.47,0.87S75.37,24.16,74.49,38.21z"/>
			<path class="st13" d="M77.55,23.43c0,0,7.41-2.23,11.3,1.35s-1.84,10.34-1.84,10.34S91.46,25.62,77.55,23.43z"/>
			<path class="st14" d="M91.33,26.03c0,0,3.69,6.8,0.99,11.34c-2.71,4.54-10.5,0.31-10.5,0.31S92.03,40.08,91.33,26.03z"/>
			<path class="st15" d="M89.05,40.99c0,0-7.11,3.04-11.38-0.07c-4.27-3.12,0.67-10.48,0.67-10.48S74.99,40.38,89.05,40.99z"/>
		</g>
		<g>
			<path class="st14" d="M96.47,40.29l-0.18-15.38l6.68-0.08c1.02-0.01,1.89,0.13,2.61,0.42c0.71,0.29,1.26,0.72,1.63,1.29
				c0.37,0.57,0.56,1.25,0.57,2.04c0.01,0.88-0.2,1.61-0.63,2.2c-0.43,0.59-1.06,1-1.87,1.23l-0.03-0.44
				c0.68,0.15,1.27,0.41,1.79,0.77c0.52,0.36,0.92,0.81,1.2,1.35c0.28,0.54,0.43,1.15,0.44,1.84c0.01,0.76-0.11,1.43-0.35,2.01
				c-0.24,0.58-0.6,1.07-1.08,1.45c-0.48,0.39-1.04,0.68-1.69,0.89c-0.65,0.21-1.38,0.31-2.18,0.32L96.47,40.29L96.47,40.29z
				 M99.52,31.12l3.12-0.04c0.4,0,0.74-0.08,1.03-0.23c0.29-0.15,0.51-0.35,0.66-0.6c0.15-0.25,0.22-0.54,0.22-0.88
				c-0.01-0.54-0.19-0.96-0.54-1.25c-0.36-0.29-0.88-0.43-1.59-0.42l-2.94,0.03L99.52,31.12L99.52,31.12z M99.6,37.4l3.6-0.04
				c0.47-0.01,0.87-0.08,1.19-0.22c0.33-0.14,0.58-0.36,0.75-0.66c0.17-0.29,0.26-0.64,0.25-1.04c0-0.38-0.1-0.7-0.3-0.96
				c-0.19-0.26-0.46-0.46-0.81-0.6c-0.35-0.14-0.76-0.2-1.24-0.19l-3.49,0.04L99.6,37.4L99.6,37.4z"/>
			<path class="st14" d="M115.6,40.29c-0.97,0.01-1.84-0.24-2.62-0.76c-0.78-0.52-1.41-1.23-1.87-2.13c-0.46-0.9-0.7-1.94-0.72-3.11
				c-0.01-1.17,0.2-2.21,0.66-3.12c0.45-0.91,1.07-1.62,1.85-2.15c0.79-0.53,1.68-0.8,2.69-0.81c0.57-0.01,1.1,0.07,1.57,0.23
				c0.48,0.16,0.9,0.39,1.26,0.68c0.36,0.29,0.67,0.62,0.92,1c0.25,0.38,0.43,0.79,0.54,1.22l-0.66-0.1l-0.03-2.83l3.1-0.04
				l0.14,11.62l-3.14,0.04l-0.03-2.79l0.7-0.07c-0.11,0.41-0.3,0.8-0.56,1.17c-0.26,0.37-0.58,0.7-0.97,0.99s-0.82,0.52-1.3,0.7
				C116.66,40.19,116.14,40.28,115.6,40.29z M116.43,37.58c0.59-0.01,1.1-0.15,1.53-0.43c0.44-0.28,0.77-0.68,1.01-1.19
				c0.24-0.51,0.35-1.1,0.34-1.77c-0.01-0.66-0.14-1.24-0.38-1.73c-0.25-0.5-0.59-0.88-1.04-1.16c-0.44-0.28-0.96-0.42-1.54-0.41
				c-0.57,0.01-1.07,0.16-1.5,0.45c-0.43,0.29-0.76,0.69-1.01,1.19c-0.24,0.5-0.36,1.08-0.35,1.74c0.01,0.67,0.14,1.26,0.39,1.76
				c0.25,0.5,0.6,0.89,1.04,1.16C115.35,37.45,115.86,37.58,116.43,37.58z"/>
			<path class="st14" d="M125.55,39.95l-0.14-11.62l2.99-0.03l0.12,2.37l-0.61,0.27c0.15-0.53,0.44-1.01,0.85-1.45
				c0.41-0.44,0.91-0.79,1.49-1.06c0.58-0.27,1.2-0.41,1.84-0.42c0.88-0.01,1.62,0.16,2.21,0.5c0.6,0.34,1.05,0.87,1.36,1.58
				c0.31,0.71,0.47,1.58,0.48,2.62l0.08,7.12l-3.12,0.04l-0.08-6.87c-0.01-0.53-0.08-0.97-0.24-1.32c-0.15-0.35-0.38-0.61-0.68-0.77
				c-0.3-0.17-0.67-0.23-1.11-0.2c-0.35,0-0.68,0.06-0.98,0.18c-0.3,0.11-0.55,0.27-0.76,0.48c-0.21,0.21-0.38,0.44-0.5,0.71
				c-0.12,0.26-0.18,0.55-0.18,0.86l0.08,6.99l-1.54,0.02c-0.34,0-0.64,0.01-0.9,0.01C125.97,39.95,125.74,39.95,125.55,39.95z"/>
			<path class="st14" d="M144.27,39.96c-1.11,0.01-2.11-0.24-3-0.76s-1.58-1.23-2.1-2.13c-0.52-0.9-0.78-1.93-0.79-3.09
				c-0.01-1.14,0.23-2.17,0.72-3.09c0.5-0.92,1.18-1.65,2.05-2.19s1.87-0.81,2.98-0.83c1.04-0.01,1.99,0.17,2.86,0.54
				c0.87,0.37,1.55,0.89,2.04,1.56l-1.69,2.08c-0.21-0.28-0.47-0.53-0.78-0.75s-0.65-0.4-1.01-0.53s-0.73-0.19-1.11-0.18
				c-0.6,0.01-1.13,0.16-1.59,0.45c-0.46,0.29-0.82,0.69-1.07,1.19c-0.26,0.5-0.38,1.07-0.38,1.72c0.01,0.63,0.15,1.19,0.43,1.68
				c0.28,0.49,0.65,0.88,1.12,1.17c0.47,0.29,1,0.44,1.59,0.43c0.38,0,0.74-0.06,1.07-0.18c0.33-0.11,0.65-0.28,0.95-0.51
				c0.3-0.22,0.57-0.49,0.81-0.8l1.72,2.05c-0.49,0.64-1.17,1.15-2.05,1.55C146.17,39.74,145.25,39.94,144.27,39.96z"/>
			<path class="st14" d="M156.52,39.81c-1.19,0.01-2.25-0.23-3.18-0.74c-0.94-0.51-1.68-1.21-2.22-2.12
				c-0.55-0.9-0.82-1.94-0.84-3.11c-0.01-1.17,0.24-2.21,0.76-3.12c0.52-0.91,1.25-1.63,2.17-2.17c0.92-0.54,1.98-0.81,3.16-0.83
				c1.17-0.01,2.22,0.24,3.16,0.75c0.94,0.52,1.67,1.22,2.21,2.12c0.54,0.9,0.81,1.93,0.83,3.1c0.01,1.17-0.24,2.21-0.75,3.13
				c-0.52,0.91-1.24,1.64-2.16,2.17C158.74,39.53,157.69,39.8,156.52,39.81z M156.49,37.09c0.57-0.01,1.08-0.16,1.53-0.45
				s0.8-0.69,1.05-1.2c0.25-0.51,0.37-1.08,0.36-1.71c-0.01-0.64-0.14-1.22-0.4-1.72c-0.26-0.5-0.62-0.89-1.08-1.17
				c-0.46-0.28-0.97-0.42-1.54-0.41c-0.59,0.01-1.1,0.16-1.55,0.46c-0.45,0.3-0.8,0.7-1.06,1.2c-0.26,0.5-0.38,1.07-0.35,1.72
				c-0.01,0.63,0.12,1.2,0.39,1.7c0.27,0.5,0.63,0.89,1.09,1.17C155.38,36.96,155.91,37.09,156.49,37.09z"/>
			<path class="st13" d="M170.19,39.65c-0.78,0.01-1.51-0.09-2.2-0.3c-0.69-0.21-1.32-0.53-1.9-0.97s-1.09-0.97-1.53-1.61l1.17-1.33
				c0.7,0.97,1.41,1.65,2.14,2.04s1.55,0.58,2.46,0.56c0.66-0.01,1.26-0.12,1.8-0.35c0.54-0.23,0.96-0.54,1.26-0.94
				s0.45-0.85,0.45-1.37c0-0.34-0.06-0.64-0.18-0.9c-0.11-0.26-0.28-0.49-0.5-0.7c-0.22-0.2-0.5-0.38-0.82-0.54
				c-0.32-0.16-0.7-0.3-1.11-0.43c-0.42-0.13-0.89-0.25-1.4-0.38c-0.75-0.17-1.41-0.37-1.97-0.6c-0.57-0.24-1.05-0.53-1.44-0.87
				c-0.39-0.35-0.69-0.75-0.89-1.21c-0.2-0.46-0.31-1-0.32-1.63c-0.01-0.6,0.11-1.16,0.36-1.67c0.25-0.52,0.6-0.96,1.05-1.34
				c0.45-0.38,0.98-0.67,1.59-0.89c0.61-0.21,1.27-0.32,1.97-0.33c0.79-0.01,1.5,0.09,2.12,0.29c0.63,0.21,1.18,0.51,1.67,0.91
				s0.91,0.89,1.27,1.46l-1.19,1.2c-0.31-0.48-0.67-0.89-1.06-1.24c-0.39-0.35-0.82-0.61-1.28-0.79c-0.46-0.18-0.97-0.26-1.53-0.26
				c-0.65,0.01-1.21,0.12-1.7,0.35s-0.87,0.53-1.14,0.92c-0.27,0.39-0.41,0.84-0.4,1.33c0,0.37,0.07,0.69,0.21,0.98
				s0.35,0.53,0.63,0.74c0.29,0.21,0.66,0.4,1.13,0.56c0.46,0.16,1.02,0.31,1.66,0.45c0.76,0.17,1.45,0.37,2.06,0.61
				c0.61,0.24,1.13,0.53,1.57,0.87c0.44,0.34,0.77,0.73,1,1.19c0.23,0.45,0.35,0.97,0.36,1.56c0.01,0.91-0.21,1.71-0.65,2.39
				s-1.07,1.22-1.88,1.61C172.21,39.44,171.27,39.64,170.19,39.65z"/>
			<path class="st13" d="M179.49,25.37c-0.41,0-0.72-0.1-0.94-0.31c-0.21-0.21-0.33-0.5-0.33-0.86s0.1-0.66,0.32-0.88
				c0.22-0.22,0.52-0.34,0.92-0.34c0.4,0,0.7,0.1,0.93,0.31c0.22,0.21,0.34,0.51,0.34,0.89c0,0.35-0.1,0.64-0.32,0.86
				S179.88,25.37,179.49,25.37z M178.84,39.33l-0.13-11.47l1.65-0.02l0.13,11.47L178.84,39.33z"/>
			<path class="st13" d="M184.06,39.27l-0.13-11.47l1.65-0.02l0.07,2.61l-0.33,0.11c0.11-0.44,0.3-0.84,0.57-1.2
				c0.27-0.36,0.59-0.68,0.97-0.95c0.38-0.27,0.79-0.47,1.24-0.62c0.45-0.14,0.93-0.22,1.43-0.23c0.6-0.01,1.14,0.09,1.62,0.28
				c0.48,0.19,0.89,0.52,1.22,1c0.33,0.47,0.59,1.1,0.78,1.87l-0.4-0.19l0.15-0.37c0.14-0.34,0.36-0.67,0.64-0.99
				c0.28-0.32,0.61-0.6,0.98-0.86c0.37-0.25,0.78-0.45,1.22-0.6c0.44-0.14,0.9-0.22,1.37-0.23c0.8-0.01,1.49,0.15,2.05,0.49
				c0.56,0.34,0.99,0.86,1.28,1.56c0.29,0.7,0.45,1.59,0.46,2.68l0.08,6.92l-1.69,0.02l-0.08-6.83c-0.01-0.76-0.11-1.38-0.31-1.86
				c-0.2-0.48-0.48-0.84-0.86-1.08c-0.38-0.24-0.85-0.35-1.42-0.35c-0.5,0.01-0.95,0.1-1.37,0.27c-0.41,0.17-0.77,0.41-1.07,0.71
				c-0.3,0.3-0.53,0.65-0.69,1.03c-0.16,0.38-0.24,0.79-0.24,1.23l0.08,6.94l-1.67,0.02l-0.08-6.85c-0.01-0.73-0.11-1.34-0.32-1.82
				c-0.2-0.48-0.5-0.84-0.88-1.09c-0.38-0.25-0.85-0.36-1.41-0.36c-0.48,0.01-0.93,0.1-1.34,0.27c-0.41,0.17-0.76,0.41-1.06,0.7
				s-0.53,0.64-0.69,1.02c-0.16,0.38-0.24,0.79-0.24,1.23l0.08,6.96L184.06,39.27L184.06,39.27z"/>
			<path class="st13" d="M204.15,43.87l-0.19-16.3l1.65-0.02l0.08,2.79l-0.31,0.05c0.13-0.56,0.4-1.07,0.84-1.54
				c0.43-0.47,0.96-0.84,1.59-1.13c0.63-0.28,1.29-0.43,1.99-0.44c1.02-0.01,1.95,0.23,2.77,0.74c0.82,0.5,1.48,1.2,1.97,2.09
				c0.49,0.89,0.75,1.91,0.76,3.07c0.01,1.14-0.21,2.16-0.67,3.06c-0.46,0.9-1.09,1.61-1.91,2.14c-0.81,0.53-1.73,0.8-2.76,0.81
				c-0.72,0.01-1.4-0.13-2.05-0.42c-0.65-0.28-1.2-0.66-1.66-1.13c-0.46-0.47-0.77-0.98-0.92-1.54l0.4,0l0.09,7.75L204.15,43.87
				L204.15,43.87z M209.68,37.61c0.78-0.01,1.46-0.21,2.06-0.59c0.6-0.39,1.07-0.91,1.41-1.58s0.51-1.41,0.5-2.25
				c-0.01-0.85-0.19-1.6-0.55-2.26c-0.36-0.65-0.84-1.17-1.45-1.54c-0.61-0.37-1.3-0.56-2.07-0.55c-0.78,0.01-1.47,0.2-2.07,0.58
				c-0.6,0.38-1.08,0.9-1.42,1.57c-0.34,0.66-0.51,1.42-0.5,2.27c0.01,0.85,0.19,1.6,0.55,2.26c0.36,0.65,0.84,1.17,1.46,1.54
				C208.21,37.44,208.91,37.62,209.68,37.61z"/>
			<path class="st13" d="M217.8,38.88l-0.19-16.25l1.65-0.02l0.19,16.25L217.8,38.88z"/>
			<path class="st13" d="M227.54,38.98c-1.14,0.01-2.16-0.22-3.05-0.71c-0.89-0.49-1.59-1.18-2.1-2.06
				c-0.51-0.89-0.77-1.91-0.78-3.07c-0.01-0.89,0.12-1.7,0.39-2.43c0.27-0.73,0.65-1.37,1.15-1.91c0.5-0.55,1.1-0.98,1.8-1.28
				c0.7-0.31,1.46-0.47,2.28-0.48c0.78-0.01,1.48,0.12,2.12,0.39c0.64,0.27,1.19,0.65,1.66,1.13c0.47,0.49,0.82,1.06,1.06,1.73
				c0.24,0.67,0.35,1.41,0.33,2.21l-0.01,0.77l-9.56,0.11l-0.26-1.38l8.55-0.1l-0.39,0.38l-0.01-0.53c-0.04-0.53-0.2-1.03-0.48-1.52
				c-0.28-0.49-0.68-0.88-1.19-1.18c-0.51-0.3-1.11-0.45-1.82-0.44c-0.82,0.01-1.53,0.18-2.12,0.52c-0.6,0.34-1.05,0.83-1.37,1.48
				c-0.32,0.65-0.47,1.45-0.46,2.4c0.01,0.91,0.2,1.69,0.55,2.35c0.36,0.66,0.87,1.17,1.52,1.53c0.66,0.36,1.44,0.53,2.37,0.52
				c0.54-0.01,1.08-0.1,1.61-0.29c0.53-0.19,1.12-0.56,1.76-1.11l0.87,1.18c-0.33,0.34-0.73,0.64-1.2,0.9
				c-0.47,0.26-0.98,0.47-1.53,0.63C228.69,38.89,228.12,38.98,227.54,38.98z"/>
		</g>
	</g>
</g>
</svg>
