<?xml version="1.0" encoding="utf-8"?>
<!-- Generator: Adobe Illustrator 23.0.5, SVG Export Plug-In . SVG Version: 6.00 Build 0)  -->
<svg version="1.1" id="Capa_1" xmlns="http://www.w3.org/2000/svg" xmlns:xlink="http://www.w3.org/1999/xlink" x="0px" y="0px"
	 viewBox="0 0 255.79 185.8" style="enable-background:new 0 0 255.79 185.8;" xml:space="preserve">
<style type="text/css">
	.st0{fill:#E94D58;}
	.st1{fill:#E73B3B;}
	.st2{fill:#EE7B82;}
	.st3{fill:#F5B3BC;}
	.st4{fill:url(#SVGID_1_);}
	.st5{fill:url(#SVGID_2_);}
	.st6{fill:url(#SVGID_3_);}
	.st7{fill:url(#SVGID_4_);}
	.st8{fill:url(#SVGID_5_);}
	.st9{fill:url(#SVGID_6_);}
	.st10{fill:url(#SVGID_7_);}
	.st11{fill:url(#SVGID_8_);}
	.st12{fill:url(#SVGID_9_);}
	.st13{fill:url(#SVGID_10_);}
</style>
<g>
	<g>
		
			<linearGradient id="SVGID_1_" gradientUnits="userSpaceOnUse" x1="-2373.9805" y1="225.9934" x2="-2246.9058" y2="225.9934" gradientTransform="matrix(-1 0 0 -1 -2118.1897 321.996)">
			<stop  offset="0" style="stop-color:#283478"/>
			<stop  offset="0.1031" style="stop-color:#304E8E"/>
			<stop  offset="0.246" style="stop-color:#3A6BA6"/>
			<stop  offset="0.3986" style="stop-color:#4182B8"/>
			<stop  offset="0.5634" style="stop-color:#4692C6"/>
			<stop  offset="0.7492" style="stop-color:#499BCE"/>
			<stop  offset="1" style="stop-color:#4A9ED0"/>
		</linearGradient>
		<path class="st4" d="M162.62,40.55c1.04-0.06,2.08-0.09,3.13-0.09c30.68,0,55.54,24.87,55.54,55.54s-24.87,55.54-55.54,55.54
			c-1.05,0-2.09-0.04-3.13-0.09c-8.93,11.41-20.54,20.6-33.9,26.63c11.3,5.1,23.82,7.97,37.03,7.97c49.73,0,90.05-40.32,90.05-90.05
			c0-49.73-40.32-90.05-90.05-90.05c-13.2,0-25.73,2.86-37.03,7.97C142.07,19.96,153.69,29.15,162.62,40.55z"/>
	</g>
	<g>
		<g>
			<path d="M90.29,186.05c-13.23,0-25.3-2.23-36.22-6.7c-10.91-4.46-20.43-10.75-28.53-18.85c-8.1-8.1-14.38-17.61-18.85-28.53
				C2.23,121.06,0,109.07,0,96c0-13.06,2.23-25.06,6.69-35.97c4.47-10.92,10.75-20.42,18.85-28.53c8.1-8.1,17.62-14.39,28.53-18.85
				c10.91-4.46,22.91-6.7,35.97-6.7s25.06,2.23,35.97,6.7c10.91,4.47,20.42,10.75,28.53,18.85c8.1,8.11,14.34,17.61,18.73,28.53
				c4.38,10.91,6.58,22.91,6.58,35.97c0,12.9-2.2,24.85-6.58,35.85c-4.38,11-10.63,20.55-18.73,28.65
				c-8.11,8.11-17.62,14.39-28.53,18.85C115.1,183.82,103.19,186.05,90.29,186.05z M90.05,146.36c6.78,0,13.02-1.24,18.73-3.72
				c5.71-2.48,10.67-5.99,14.89-10.54c4.22-4.55,7.48-9.88,9.8-16c2.31-6.12,3.47-12.82,3.47-20.1c0-7.27-1.16-13.97-3.47-20.09
				c-2.32-6.12-5.58-11.45-9.8-16c-4.22-4.55-9.18-8.06-14.89-10.54c-5.71-2.48-11.95-3.72-18.73-3.72
				c-6.78,0-13.02,1.24-18.73,3.72c-5.71,2.48-10.71,6-15.01,10.54c-4.3,4.55-7.56,9.88-9.79,16c-2.23,6.12-3.35,12.82-3.35,20.09
				c0,7.28,1.11,14.02,3.35,20.22c2.23,6.2,5.49,11.53,9.79,16c4.3,4.46,9.3,7.94,15.01,10.42
				C77.02,145.12,83.26,146.36,90.05,146.36z"/>
		</g>
		<g>
			<linearGradient id="SVGID_2_" gradientUnits="userSpaceOnUse" x1="-320.9998" y1="93.0259" x2="1142.0983" y2="93.0259">
				<stop  offset="0.0758" style="stop-color:#EE781C"/>
				<stop  offset="1" style="stop-color:#FCCB68"/>
			</linearGradient>
			<path class="st5" d="M90.29,186.05c-13.23,0-25.3-2.23-36.22-6.7c-10.91-4.46-20.43-10.75-28.53-18.85
				c-8.1-8.1-14.38-17.61-18.85-28.53C2.23,121.06,0,109.07,0,96c0-13.06,2.23-25.06,6.69-35.97c4.47-10.92,10.75-20.42,18.85-28.53
				c8.1-8.1,17.62-14.39,28.53-18.85c10.91-4.46,22.91-6.7,35.97-6.7s25.06,2.23,35.97,6.7c10.91,4.47,20.42,10.75,28.53,18.85
				c8.1,8.11,14.34,17.61,18.73,28.53c4.38,10.91,6.58,22.91,6.58,35.97c0,12.9-2.2,24.85-6.58,35.85
				c-4.38,11-10.63,20.55-18.73,28.65c-8.11,8.11-17.62,14.39-28.53,18.85C115.1,183.82,103.19,186.05,90.29,186.05z M90.05,146.36
				c6.78,0,13.02-1.24,18.73-3.72c5.71-2.48,10.67-5.99,14.89-10.54c4.22-4.55,7.48-9.88,9.8-16c2.31-6.12,3.47-12.82,3.47-20.1
				c0-7.27-1.16-13.97-3.47-20.09c-2.32-6.12-5.58-11.45-9.8-16c-4.22-4.55-9.18-8.06-14.89-10.54c-5.71-2.48-11.95-3.72-18.73-3.72
				c-6.78,0-13.02,1.24-18.73,3.72c-5.71,2.48-10.71,6-15.01,10.54c-4.3,4.55-7.56,9.88-9.79,16c-2.23,6.12-3.35,12.82-3.35,20.09
				c0,7.28,1.11,14.02,3.35,20.22c2.23,6.2,5.49,11.53,9.79,16c4.3,4.46,9.3,7.94,15.01,10.42
				C77.02,145.12,83.26,146.36,90.05,146.36z"/>
		</g>
	</g>
</g>
</svg>
